<?xml version="1.0" encoding="UTF-8" standalone="no"?>
<svg
   height="24px"
   viewBox="0 -960 960 960"
   width="24px"
   fill="#FFFFFF"
   version="1.1"
   id="svg1"
   sodipodi:docname="Group.svg"
   inkscape:version="1.3.2 (091e20e, 2023-11-25, custom)"
   xmlns:inkscape="http://www.inkscape.org/namespaces/inkscape"
   xmlns:sodipodi="http://sodipodi.sourceforge.net/DTD/sodipodi-0.dtd"
   xmlns="http://www.w3.org/2000/svg"
   xmlns:svg="http://www.w3.org/2000/svg">
  <defs
     id="defs1" />
  <sodipodi:namedview
     id="namedview1"
     pagecolor="#505050"
     bordercolor="#eeeeee"
     borderopacity="1"
     inkscape:showpageshadow="0"
     inkscape:pageopacity="0"
     inkscape:pagecheckerboard="0"
     inkscape:deskcolor="#505050"
     inkscape:zoom="32.375"
     inkscape:cx="11.984556"
     inkscape:cy="3.4440154"
     inkscape:window-width="1920"
     inkscape:window-height="991"
     inkscape:window-x="-9"
     inkscape:window-y="-9"
     inkscape:window-maximized="1"
     inkscape:current-layer="svg1" />
  <path
     d="M0-240v-63q0-43 44-70t116-27q13 0 25 .5t23 2.5q-14 21-21 44t-7 48v65H0Zm240 0v-65q0-32 17.5-58.5T307-410q32-20 76.5-30t96.5-10q53 0 97.5 10t76.5 30q32 20 49 46.5t17 58.5v65H240Zm540 0v-65q0-26-6.5-49T754-397q11-2 22.5-2.5t23.5-.5q72 0 116 26.5t44 70.5v63H780Zm-455-80h311q-10-20-55.5-35T480-370q-55 0-100.5 15T325-320ZM160-440q-33 0-56.5-23.5T80-520q0-34 23.5-57t56.5-23q34 0 57 23t23 57q0 33-23 56.5T160-440Zm640 0q-33 0-56.5-23.5T720-520q0-34 23.5-57t56.5-23q34 0 57 23t23 57q0 33-23 56.5T800-440Zm-320-40q-50 0-85-35t-35-85q0-51 35-85.5t85-34.5q51 0 85.5 34.5T600-600q0 50-34.5 85T480-480Zm0-80q17 0 28.5-11.5T520-600q0-17-11.5-28.5T480-640q-17 0-28.5 11.5T440-600q0 17 11.5 28.5T480-560Zm1 240Zm-1-280Z"
     id="path1" />
  <path
     style="fill:#0018d3;stroke-width:0.241073;stroke-linejoin:round;fill-opacity:1;stroke:#0018d3;stroke-opacity:1"
     d="m 6.0237024,17.027027 c 4.03e-4,-0.725319 0.01171,-1.017989 0.045488,-1.17742 0.2928114,-1.382061 1.7058785,-2.470299 3.7336659,-2.87539 0.7760317,-0.155027 1.1404497,-0.186158 2.1816997,-0.186372 0.993598,-2.04e-4 1.314149,0.02248 2.000733,0.141609 2.056113,0.356743 3.493474,1.357251 3.902646,2.716528 0.0648,0.215274 0.07016,0.3002 0.0813,1.288381 l 0.01193,1.057915 H 12.002167 6.023166 Z m 9.8836336,-1.033089 c 0,-0.05556 -0.168347,-0.25438 -0.300739,-0.355185 -0.522231,-0.397635 -1.499829,-0.718638 -2.571659,-0.844428 -0.503424,-0.05908 -1.5677,-0.05889 -2.074325,3.73e-4 -1.1492907,0.134439 -2.21212,0.508011 -2.6406018,0.92814 -0.1080525,0.105946 -0.1964591,0.215124 -0.1964591,0.242618 0,0.04579 0.3265084,0.04999 3.8918919,0.04999 2.140541,0 3.891892,-0.0097 3.891892,-0.02151 z"
     id="path2"
     transform="matrix(40,0,0,40,0,-960)" />
  <path
     style="fill:#0018d3;fill-opacity:1;stroke:#0018d3;stroke-width:0.241073;stroke-linejoin:round;stroke-opacity:1"
     d="M 11.702304,11.966095 C 11.017323,11.909038 10.414793,11.624587 9.9040579,11.117154 9.4489915,10.66503 9.1690397,10.133708 9.061541,9.5181365 8.9972718,9.1501109 9.0190261,8.5647207 9.1099229,8.2162162 9.1814283,7.9420597 9.3649728,7.5363599 9.5183641,7.3134133 9.7950885,6.9112081 10.333829,6.4599303 10.767054,6.2674443 11.219048,6.0666186 11.846845,5.975285 12.355212,6.0363944 c 0.406982,0.048922 0.614854,0.1090558 0.972973,0.2814637 0.681768,0.3282206 1.216664,0.9134647 1.470453,1.6088613 0.312535,0.8563678 0.215485,1.8866916 -0.248731,2.6406216 -0.606193,0.984517 -1.652217,1.498328 -2.847603,1.398754 z M 12.46974,9.8987583 c 0.229174,-0.1128219 0.385654,-0.2846937 0.475061,-0.52179 0.0872,-0.2312447 0.073,-0.6321909 -0.02941,-0.8300976 C 12.810878,8.3448885 12.646315,8.1808763 12.452835,8.085862 12.300968,8.0112828 12.241462,8 12,8 c -0.241462,0 -0.300968,0.011283 -0.452835,0.085862 -0.19348,0.095014 -0.358043,0.2590265 -0.462557,0.4610087 -0.101884,0.196902 -0.116595,0.5989372 -0.03028,0.8276467 0.211105,0.5593881 0.857618,0.7988436 1.415415,0.5242409 z"
     id="path3"
     transform="matrix(40,0,0,40,0,-960)" />
  <path
     style="fill:#4459ff;fill-opacity:1;stroke:#4459ff;stroke-width:0.241073;stroke-linejoin:round;stroke-opacity:1"
     d="m 19.598456,12.942825 c -0.713083,-0.156527 -1.305462,-0.711715 -1.516821,-1.421589 -0.08768,-0.294485 -0.07402,-0.826138 0.02937,-1.142858 0.199255,-0.6104076 0.755342,-1.1339824 1.379343,-1.2987004 0.263479,-0.06955 0.75246,-0.070777 1.019306,-0.00256 0.69619,0.1779846 1.248888,0.7372646 1.423303,1.4402534 0.0238,0.09592 0.04113,0.317808 0.03981,0.509652 -0.002,0.284552 -0.01599,0.379926 -0.08633,0.586873 -0.331704,0.975923 -1.309314,1.543748 -2.287976,1.328925 z"
     id="path4"
     transform="matrix(40,0,0,40,0,-960)" />
  <path
     style="fill:#4459ff;fill-opacity:1;stroke:#4459ff;stroke-width:0.241073;stroke-linejoin:round;stroke-opacity:1"
     d="m 19.512239,16.888031 c -0.01356,-0.944326 -0.0248,-1.146903 -0.07766,-1.39878 -0.08574,-0.408555 -0.19928,-0.731717 -0.382233,-1.087887 -0.08588,-0.167197 -0.149663,-0.310483 -0.141733,-0.318413 0.0079,-0.0079 0.207637,-0.02955 0.443794,-0.04804 0.448396,-0.03511 1.175514,-0.01884 1.62065,0.03626 1.573181,0.194738 2.679706,0.896042 2.950348,1.869901 0.03986,0.143409 0.05409,0.382536 0.06646,1.116843 l 0.01575,0.934363 H 21.767854 19.52809 Z"
     id="path5"
     transform="matrix(40,0,0,40,0,-960)" />
  <path
     style="fill:#4459ff;fill-opacity:1;stroke:#4459ff;stroke-width:0.241073;stroke-linejoin:round;stroke-opacity:1"
     d="m 0.00865043,17.057915 c 0.01779526,-1.022021 0.03024598,-1.107858 0.21389996,-1.47467 0.14222017,-0.284056 0.57043784,-0.705671 0.93335111,-0.91896 0.843529,-0.495753 2.0659691,-0.721018 3.4324034,-0.632506 0.3009192,0.01949 0.5537732,0.04209 0.5618977,0.05021 0.00812,0.0081 -0.035854,0.09811 -0.097729,0.199968 -0.147116,0.242179 -0.2720506,0.520343 -0.3710159,0.826057 -0.1628006,0.502907 -0.1770165,0.63475 -0.1935913,1.795458 l -0.015548,1.088803 H 2.2323499 -0.00761854 Z"
     id="path6"
     transform="matrix(40,0,0,40,0,-960)" />
  <path
     style="fill:#4459ff;fill-opacity:1;stroke:#4459ff;stroke-width:0.241073;stroke-linejoin:round;stroke-opacity:1"
     d="M 3.5984556,12.942825 C 2.8853731,12.786298 2.292994,12.23111 2.0816352,11.521236 1.9939549,11.226751 2.0076172,10.695098 2.111004,10.378378 2.3102594,9.7679704 2.8663455,9.2443956 3.4903475,9.0796776 c 0.263478,-0.06955 0.7524595,-0.070777 1.019305,-0.00256 0.6961903,0.1779846 1.2488883,0.7372646 1.4233035,1.4402534 0.023799,0.09592 0.041129,0.317808 0.039807,0.509652 -0.00196,0.284552 -0.015992,0.379926 -0.08633,0.586873 -0.3317041,0.975923 -1.3093145,1.543748 -2.2879768,1.328925 z"
     id="path7"
     transform="matrix(40,0,0,40,0,-960)" />
  <g
     id="g2"
     transform="matrix(8.6187987,0,0,6.0783234,448.37429,-974.79981)"
     style="fill:#000080">
    <g
       id="Icon-Comment"
       transform="translate(328,480)"
       style="fill:#000080">
      <path
         class="st0"
         d="m -310,-425.6 h -2.5 l 1.5,-2.1 c 1.1,-1.6 1.9,-3.5 2.3,-6 -7.1,-3.2 -10.9,-9.2 -10.9,-17.1 0,-12.1 9.1,-19.6 23.8,-19.6 14.7,0 23.8,7.5 23.8,19.6 0,12.2 -8.9,19.6 -23.8,19.6 -0.3,0 -0.7,0 -1,0 -2.4,2.6 -6.4,5.6 -13.2,5.6 z m 14,-42.2 c -13.3,0 -21.2,6.3 -21.2,17 0,9.1 5.6,13.2 10.2,15.1 l 0.9,0.4 -0.1,1 c -0.3,2.3 -0.8,4.3 -1.6,6 4.8,-0.6 7.6,-3 9.1,-5 l 0.4,-0.5 h 0.9 c 0.4,0 0.9,0 1.3,0 19.1,0 21.2,-11.9 21.2,-17 0.1,-10.6 -7.8,-17 -21.1,-17 z"
         id="Fill-59"
         style="fill:#000080" />
    </g>
  </g>
</svg>
