<?xml version="1.0" encoding="UTF-8" standalone="no"?>
<svg
   height="24px"
   viewBox="0 -960 960 960"
   width="24px"
   fill="#FFFFFF"
   version="1.1"
   id="svg1"
   sodipodi:docname="Security.svg"
   inkscape:version="1.3.2 (091e20e, 2023-11-25, custom)"
   xmlns:inkscape="http://www.inkscape.org/namespaces/inkscape"
   xmlns:sodipodi="http://sodipodi.sourceforge.net/DTD/sodipodi-0.dtd"
   xmlns="http://www.w3.org/2000/svg"
   xmlns:svg="http://www.w3.org/2000/svg">
  <defs
     id="defs1" />
  <sodipodi:namedview
     id="namedview1"
     pagecolor="#505050"
     bordercolor="#eeeeee"
     borderopacity="1"
     inkscape:showpageshadow="0"
     inkscape:pageopacity="0"
     inkscape:pagecheckerboard="0"
     inkscape:deskcolor="#505050"
     inkscape:zoom="32.375"
     inkscape:cx="11.984556"
     inkscape:cy="12"
     inkscape:window-width="1920"
     inkscape:window-height="991"
     inkscape:window-x="-9"
     inkscape:window-y="-9"
     inkscape:window-maximized="1"
     inkscape:current-layer="svg1" />
  <path
     d="m438-338 226-226-57-57-169 169-84-84-57 57 141 141Zm42 258q-139-35-229.5-159.5T160-516v-244l320-120 320 120v244q0 152-90.5 276.5T480-80Zm0-84q104-33 172-132t68-220v-189l-240-90-240 90v189q0 121 68 220t172 132Zm0-316Z"
     id="path1" />
  <path
     style="fill:none;fill-opacity:0.476868;stroke:#28ff15;stroke-width:0.241073;stroke-linejoin:round"
     d="M 11.690978,19.772318 C 10.080072,19.187078 8.7033015,18.066141 7.645731,16.478764 6.8263239,15.248863 6.3533173,14.025358 6.1112745,12.509653 6.0441146,12.089088 6.0419137,11.999143 6.0310776,9.2322934 L 6.0199357,6.387367 9.0069528,5.2671658 C 11.696538,4.2585085 12.003497,4.1500076 12.089649,4.1775249 c 0.07463,0.023838 5.601781,2.0954011 5.834747,2.1868502 0.05319,0.020878 0.05517,0.1487838 0.04453,2.8673491 -0.01084,2.7674378 -0.01304,2.8573588 -0.0802,3.2779288 -0.239022,1.496783 -0.71709,2.743197 -1.507167,3.929465 -1.074243,1.61293 -2.374338,2.688503 -3.991199,3.301932 -0.196284,0.07447 -0.371363,0.134704 -0.389064,0.133856 -0.0177,-8.49e-4 -0.157344,-0.04701 -0.310318,-0.102588 z m 2.11588,-7.046358 2.826037,-2.8261629 -0.725549,-0.726042 -0.725549,-0.7260417 -2.116122,2.1159556 -2.116122,2.115955 -1.04994,-1.050281 -1.0499405,-1.050281 -0.7259031,0.725903 -0.7259031,0.725903 1.7604247,1.760628 c 0.968233,0.968345 1.774398,1.760628 1.791478,1.760628 0.01708,0 1.302769,-1.271774 2.857089,-2.826164 z"
     id="path2"
     transform="matrix(40,0,0,40,0,-960)" />
  <path
     style="fill:none;fill-opacity:0.476868;stroke:#28ff15;stroke-width:0.241073;stroke-linejoin:round"
     d="M 11.69112,19.628367 C 11.274716,19.471663 10.535865,19.092227 10.169011,18.846688 9.0146079,18.074036 7.9974547,16.929369 7.267801,15.581773 6.6465838,14.434448 6.2306693,12.97717 6.1928688,11.815434 6.18484,11.568683 6.1711057,10.268708 6.1623482,8.9266005 L 6.1464254,6.4864057 7.9921316,5.7940234 C 10.309693,4.9246334 11.465528,4.4970648 11.790249,4.3890171 l 0.253569,-0.084373 2.866122,1.0725337 c 1.576367,0.5898936 2.877711,1.0826671 2.891875,1.0950523 0.03717,0.032501 0.02635,5.2873129 -0.01172,5.6944029 -0.0624,0.667179 -0.284485,1.589162 -0.558801,2.319853 -0.681069,1.81415 -2.053388,3.533527 -3.568133,4.47051 -0.505939,0.312961 -1.388303,0.720487 -1.627473,0.751659 -0.06007,0.0078 -0.192262,-0.02297 -0.344568,-0.08029 z m 2.214854,-6.816854 c 1.576425,-1.575289 2.866227,-2.8852257 2.866227,-2.9109697 0,-0.072617 -1.517146,-1.576219 -1.590418,-1.576219 -0.04077,0 -0.774322,0.7123413 -2.147079,2.0849877 L 10.949547,12.4943 9.9305473,11.474949 C 9.2722511,10.816426 8.8896989,10.455598 8.8498235,10.455598 c -0.073194,0 -1.5911362,1.502957 -1.5911362,1.575429 0,0.04492 3.3841407,3.4327 3.5702047,3.574039 0.04951,0.03761 0.117213,0.06889 0.150441,0.0695 0.03968,7.3e-4 1.04413,-0.981895 2.926641,-2.863051 z"
     id="path3"
     transform="matrix(40,0,0,40,0,-960)" />
  <path
     style="fill:#28ff15;fill-opacity:1;stroke:#28ff15;stroke-width:0.241073;stroke-linejoin:round"
     d="M 11.674414,19.475608 C 11.316826,19.33292 10.612139,18.965575 10.285714,18.751694 9.626114,18.319509 8.9234475,17.671521 8.3736502,16.988417 7.3586737,15.727344 6.6993767,14.276303 6.4228796,12.694981 6.3374066,12.20615 6.3091371,11.297074 6.2970753,8.6494267 L 6.2876508,6.5807066 7.0125513,6.3081078 C 8.4551622,5.7656139 11.450832,4.6535664 11.74055,4.5529878 l 0.296534,-0.1029448 1.464084,0.546484 c 0.805245,0.3005663 2.068716,0.77466 2.807712,1.0535416 l 1.34363,0.5070575 0.02436,0.3971127 c 0.0134,0.2184119 0.0162,1.4673828 0.0062,2.7754909 -0.01968,2.5812703 -0.0229,2.6352533 -0.205232,3.4440153 -0.313621,1.391132 -0.938954,2.679704 -1.851657,3.815555 -0.510771,0.635651 -1.209973,1.29579 -1.780515,1.681043 -0.549001,0.370708 -1.555157,0.863057 -1.811844,0.886602 -0.08929,0.0082 -0.195062,-0.01575 -0.359439,-0.08134 z m -0.08356,-4.182691 c 0.900786,-0.856162 5.200807,-5.186443 5.254408,-5.291383 0.02777,-0.054369 0.05049,-0.1234176 0.05049,-0.153442 0,-0.067777 -1.532599,-1.5992203 -1.631573,-1.6303431 -0.03945,-0.012405 -0.107803,-0.013501 -0.151894,-0.00243 -0.0504,0.01265 -0.838061,0.7755861 -2.121352,2.0547651 L 10.949749,12.304725 9.9767907,11.338357 C 9.4416636,10.806855 8.9715613,10.361748 8.9321192,10.349229 c -0.039442,-0.01252 -0.107785,-0.01371 -0.1518733,-0.0026 -0.048082,0.01207 -0.3933014,0.331472 -0.862665,0.798156 -0.7141218,0.710045 -0.7825019,0.787133 -0.7824751,0.882126 2.72e-5,0.09637 0.131233,0.235361 1.7683691,1.87336 0.9725869,0.973099 1.8169881,1.798408 1.8764481,1.834019 0.206608,0.123743 0.22953,0.111268 0.81093,-0.441331 z"
     id="path4"
     transform="matrix(40,0,0,40,0,-960)" />
  <path
     style="fill:#28ff15;fill-opacity:1;stroke:#28ff15;stroke-width:0.241073;stroke-linejoin:round"
     d="M 11.419943,19.773347 C 9.6884083,19.066553 8.2846702,17.798579 7.2140823,15.974263 6.9890697,15.590834 6.6796103,14.944887 6.5383152,14.563707 6.2379939,13.753512 6.0085163,12.749064 5.9606405,12.035163 5.9254,11.509671 5.9173113,6.3476521 5.9516785,6.3157984 5.965514,6.3029747 6.9498069,5.9281084 8.1389961,5.4827622 11.026197,4.4015177 11.670688,4.1654277 11.890898,4.1083657 l 0.18571,-0.048122 2.957835,1.1081114 c 2.505689,0.9387214 2.963668,1.119442 2.99599,1.1822335 0.04638,0.090102 0.05409,5.0476154 0.0089,5.6957434 -0.0576,0.825355 -0.33169,1.935397 -0.694041,2.810811 -0.197603,0.477394 -0.545371,1.124619 -0.856669,1.594328 -1.073334,1.619529 -2.376153,2.718388 -3.964647,3.34397 -0.539479,0.212457 -0.528861,0.21267 -1.103995,-0.02209 z M 13.729067,12.65563 16.47744,9.8988402 15.829634,9.2504828 15.181828,8.6021254 13.096621,10.687163 c -1.363728,1.363617 -2.106493,2.085038 -2.146728,2.085038 -0.0396,0 -0.424951,-0.363308 -1.0812199,-1.019358 l -1.0196985,-1.019358 -0.6482349,0.648787 -0.648235,0.648787 1.6985721,1.698782 c 0.9342142,0.934331 1.7055572,1.695137 1.7140952,1.690681 0.0085,-0.0045 1.252291,-1.248658 2.763895,-2.764892 z"
     id="path5"
     transform="matrix(40,0,0,40,0,-960)" />
  <path
     style="fill:#00d325;fill-opacity:1;stroke:none;stroke-width:0.241073;stroke-linejoin:round"
     d="M 11.583012,21.864914 C 9.9199666,21.354168 8.5736334,20.528722 7.3513514,19.270454 5.7373716,17.608958 4.6224451,15.478782 4.2169384,13.281853 4.0295422,12.26659 4.030888,12.301215 4.030888,8.4951734 V 5.0057912 L 8.0153581,3.5116478 11.999828,2.0175045 15.98447,3.5116157 19.969112,5.0057269 v 3.4894144 c 0,3.8060767 0.0013,3.7714477 -0.18605,4.7867117 -0.405291,2.195761 -1.521292,4.327988 -3.134413,5.988601 -1.056043,1.087133 -2.247268,1.876989 -3.583012,2.375759 -0.356497,0.133118 -1.003258,0.331152 -1.075153,0.329207 -0.02874,-7.78e-4 -0.212106,-0.05051 -0.407472,-0.110506 z M 12.3661,19.998193 c 0.34957,-0.116879 1.05008,-0.452894 1.44085,-0.691134 1.686696,-1.028327 3.211742,-2.983786 3.874782,-4.968361 0.257311,-0.770167 0.419322,-1.51349 0.482253,-2.212624 0.03777,-0.41967 0.02745,-5.7662862 -0.01129,-5.8440218 C 18.138992,6.2545557 18.041694,6.190215 17.936477,6.1390731 17.5578,5.9550122 12.183607,3.9380392 12.073327,3.9385905 11.890818,3.939503 11.613207,4.0375527 8.6177606,5.159065 5.8447945,6.1972794 5.8693399,6.1874134 5.8350632,6.2775682 c -0.037174,0.097776 -0.034751,5.4558498 0.00266,5.8707598 0.087496,0.970508 0.3925693,2.106067 0.8125283,3.024435 0.4865198,1.063922 1.1279135,2.004906 1.9190113,2.815366 0.4776411,0.489332 0.8571787,0.80753 1.3694999,1.148167 0.7213913,0.479645 1.7209033,0.94308 2.0566863,0.953606 0.04846,0.0015 0.215255,-0.03975 0.370656,-0.09171 z"
     id="path6"
     transform="matrix(40,0,0,40,0,-960)" />
</svg>
